<svg id="a0023fc4-e196-48b3-9452-24a171a77ea2" data-name="Background" xmlns="http://www.w3.org/2000/svg" viewBox="0 0 5000 1000"><rect width="5000" height="1000" fill="#eb445a"/><path d="M1179.5,238.1h121.8c77,0,114.8,42.7,114.8,121.1V607c0,78.4-37.8,121.1-114.8,121.1H1179.5Zm77,70v350h43.4c24.5,0,39.2-12.6,39.2-47.6V355.7c0-35-14.7-47.6-39.2-47.6Z" fill="#fff"/><path d="M1542.1,444.6h105.7v70H1542.1V658.1h133v70h-210v-490h210v70h-133Z" fill="#fff"/><path d="M1950.9,359.2v63.7c0,78.4-37.8,121.1-114.8,121.1h-36.4V728.1h-77v-490h113.4C1913.1,238.1,1950.9,280.8,1950.9,359.2Zm-151.2-51.1V474h36.4c24.5,0,37.8-11.2,37.8-46.2V354.3c0-35-13.3-46.2-37.8-46.2Z" fill="#fff"/><path d="M2151.1,728.1c-4.2-12.6-7-20.3-7-60.2v-77c0-45.5-15.4-62.3-50.4-62.3h-26.6V728.1h-77v-490h116.2c79.8,0,114.1,37.1,114.1,112.7v38.5c0,50.4-16.1,83.3-50.4,99.4,38.5,16.1,51.1,53.2,51.1,104.3v75.6c0,23.8.7,41.3,8.4,59.5Zm-84-420V458.6h30.1c28.7,0,46.2-12.6,46.2-51.8V358.5c0-35-11.9-50.4-39.2-50.4Z" fill="#fff"/><path d="M2348.5,444.6h105.7v70H2348.5V658.1h133v70h-210v-490h210v70h-133Z" fill="#fff"/><path d="M2752.4,545.4v65.1c0,78.4-39.2,123.2-114.8,123.2s-114.8-44.8-114.8-123.2V355.7c0-78.4,39.2-123.2,114.8-123.2s114.8,44.8,114.8,123.2v47.6h-72.8V350.8c0-35-15.4-48.3-39.9-48.3s-39.9,13.3-39.9,48.3V615.4c0,35,15.4,47.6,39.9,47.6s39.9-12.6,39.9-47.6v-70Z" fill="#fff"/><path d="M3048.4,728.1h-77.7l-13.3-88.9h-94.5l-13.3,88.9h-70.7l78.4-490H2970ZM2872.7,572.7h74.2l-37.1-247.8Z" fill="#fff"/><path d="M3061.7,238.1h238v70h-80.5v420h-77v-420h-80.5Z" fill="#fff"/><path d="M3410.3,444.6H3516v70H3410.3V658.1h133v70h-210v-490h210v70h-133Z" fill="#fff"/><path d="M3590.9,238.1h121.8c77,0,114.8,42.7,114.8,121.1V607c0,78.4-37.8,121.1-114.8,121.1H3590.9Zm77,70v350h43.4c24.5,0,39.2-12.6,39.2-47.6V355.7c0-35-14.7-47.6-39.2-47.6Z" fill="#fff"/></svg>